<svg xmlns="http://www.w3.org/2000/svg"  viewBox="0 0 80 80" width="80px" height="80px"><path fill="#fff" d="M8.5,69.5c-4.6-6.5-7-14.1-7-22c0-21,17-38,38-38s38,17,38,38c0,7.9-2.4,15.5-7,22H8.5z"/><path fill="#4e7ab5" d="M39.5,10C60.2,10,77,26.8,77,47.5c0,7.8-2.3,15.2-6.8,21.5H8.8C4.3,62.7,2,55.3,2,47.5 C2,26.8,18.8,10,39.5,10 M39.5,9C18.2,9,1,26.2,1,47.5C1,55.9,3.7,63.7,8.3,70h62.5c4.6-6.3,7.3-14.1,7.3-22.5 C78,26.2,60.8,9,39.5,9L39.5,9z"/><path fill="#b6c9d6" d="M30 59H49V61H30z"/><path fill="#c74343" d="M34.6 36.4H64.6V38.4H34.6z" transform="rotate(-45.001 49.616 37.385)"/><path fill="#f78f8f" d="M39.5 45.5A2 2 0 1 0 39.5 49.5A2 2 0 1 0 39.5 45.5Z"/><path fill="#c74343" d="M39.5,46c0.8,0,1.5,0.7,1.5,1.5S40.3,49,39.5,49S38,48.3,38,47.5S38.7,46,39.5,46 M39.5,45 c-1.4,0-2.5,1.1-2.5,2.5s1.1,2.5,2.5,2.5s2.5-1.1,2.5-2.5S40.9,45,39.5,45L39.5,45z"/><path fill="#66798f" d="M40 10c-.2 0-.3 0-.5 0s-.3 0-.5 0v5h1V10zM72 48h5c0-.2 0-.3 0-.5s0-.3 0-.5h-5V48zM72.2 65.8l-4.3-2.5-.5.9 4.3 2.5C71.9 66.4 72 66.1 72.2 65.8zM2 48h5v-1H2c0 .2 0 .3 0 .5S2 47.8 2 48zM7.3 66.7l4.3-2.5-.5-.9-4.3 2.5C7 66.1 7.1 66.4 7.3 66.7zM58.7 15.3c-.3-.2-.6-.3-.9-.5l-2.5 4.3.9.5L58.7 15.3zM11.1 31.7l.5-.9-4.3-2.5c-.2.3-.3.6-.5.9L11.1 31.7zM71.7 28.3l-4.3 2.5.5.9 4.3-2.5C72 28.9 71.9 28.6 71.7 28.3zM22.8 19.6l.9-.5-2.5-4.3c-.3.2-.6.3-.9.5L22.8 19.6z"/></svg>